<!-- Generator: Adobe Illustrator 22.0.1, SVG Export Plug-In  -->
<svg version="1.1"
	 xmlns="http://www.w3.org/2000/svg" xmlns:xlink="http://www.w3.org/1999/xlink" xmlns:a="http://ns.adobe.com/AdobeSVGViewerExtensions/3.0/"
	 x="0px" y="0px" width="67.244px" height="59.556px" viewBox="0 0 67.244 59.556"
	 style="enable-background:new 0 0 67.244 59.556;" xml:space="preserve">
<defs>
</defs>
<g>
	<path d="M25.125,48.375c3.086,0,5.587,2.501,5.587,5.589c0,3.086-2.501,5.591-5.587,5.591c-3.086,0-5.591-2.505-5.591-5.591
		C19.534,50.877,22.038,48.375,25.125,48.375z"/>
	<path d="M49.517,48.375c3.086,0,5.59,2.501,5.59,5.589c0,3.086-2.504,5.591-5.59,5.591c-3.088,0-5.588-2.505-5.588-5.591
		C43.929,50.877,46.429,48.375,49.517,48.375z"/>
	<path d="M63.754,17.737c-7.14,0-34.5,0-34.5,0s-2.039,0.463-2.039,2.703c0,2.246,2.039,2.897,2.039,2.897h30.932l-1.738,5.881
		c-8.467,0-30.401,0-30.401,0s-1.899,0.43-1.899,2.514c0,2.094,1.899,2.703,1.899,2.703h28.798h0.064l-1.631,5.501H23.888
		l-2.084-16.601l-0.676-5.598c0,0-0.606-5.172-0.949-7.305C19.837,8.284,14.474,5.601,2.944,0.167c-2.711-1.138-4.979,3.822,0,6.418
		l9.092,4.247c0,0,2.115,1.229,2.296,2.875c0.182,1.656,3.871,29.004,3.871,29.004s0.148,3.808,3.606,3.808
		c3.456,0,31.796,0,34.691,0c2.904,0,3.469-3.034,3.469-3.034l6.875-20.418C66.844,23.066,68.884,17.737,63.754,17.737z"/>
</g>
</svg>