<!-- Generator: Adobe Illustrator 22.0.1, SVG Export Plug-In  -->
<svg version="1.1"
	 xmlns="http://www.w3.org/2000/svg" xmlns:xlink="http://www.w3.org/1999/xlink" xmlns:a="http://ns.adobe.com/AdobeSVGViewerExtensions/3.0/"
	 x="0px" y="0px" width="139.391px" height="139.391px" viewBox="0 0 139.391 139.391"
	 style="enable-background:new 0 0 139.391 139.391;" xml:space="preserve">
<style type="text/css">
	.st0{fill:#FFFFFF;}
</style>
<defs>
</defs>
<g>
	<path d="M69.695,0C31.266,0,0,31.266,0,69.695c0,38.43,31.266,69.696,69.695,69.696c38.43,0,69.696-31.266,69.696-69.696
		C139.391,31.266,108.125,0,69.695,0L69.695,0z M69.695,127.445"/>
	<path class="st0" d="M96.664,42.73c-2.332-2.332-6.117-2.332-8.445,0L69.695,61.254L51.176,42.73c-2.336-2.332-6.114-2.332-8.449,0
		c-2.332,2.336-2.332,6.114,0,8.45L61.25,69.699L42.727,88.223c-2.332,2.336-2.332,6.113,0,8.449c1.168,1.164,2.695,1.75,4.226,1.75
		c1.527,0,3.059-0.582,4.223-1.75l18.519-18.524l18.524,18.524c1.164,1.164,2.691,1.75,4.222,1.75c1.528,0,3.055-0.582,4.223-1.75
		c2.336-2.336,2.336-6.113,0-8.449l-18.519-18.52L96.664,51.18C98.996,48.844,98.996,45.066,96.664,42.73L96.664,42.73z
		 M96.664,42.73"/>
</g>
</svg>