<?xml version="1.0" encoding="UTF-8" standalone="no"?>
<svg
   xmlns:dc="http://purl.org/dc/elements/1.1/"
   xmlns:cc="http://creativecommons.org/ns#"
   xmlns:rdf="http://www.w3.org/1999/02/22-rdf-syntax-ns#"
   xmlns:svg="http://www.w3.org/2000/svg"
   xmlns="http://www.w3.org/2000/svg"
   id="svg52"
   xml:space="preserve"
   style="enable-background:new 0 0 152.405 42.68;"
   viewBox="0 0 152.405 42.68"
   height="42.68px"
   width="152.405px"
   y="0px"
   x="0px"
   version="1.1"><metadata
     id="metadata56"><rdf:RDF><cc:Work
         rdf:about=""><dc:format>image/svg+xml</dc:format><dc:type
           rdf:resource="http://purl.org/dc/dcmitype/StillImage" /></cc:Work></rdf:RDF></metadata><style
     id="style2"
     type="text/css">
	.st0{fill:none;stroke:#000000;stroke-width:0.5;stroke-miterlimit:10;}
	.st1{font-family:'HalisGR-Bold';}
	.st2{font-size:18px;}
	.st3{letter-spacing:3;}
	.st4{letter-spacing:2;}
	.st5{font-family:'HalisGR-Regular';}
	.st6{font-size:10px;}
</style><defs
     id="defs4" /><g
     id="g48"><path
       id="path6"
       d="M10.587,6.495c-0.684-0.846-2.07-1.603-3.241-1.603c-3.223,0-3.673,3.061-3.673,4.087s0.468,4.069,3.691,4.069   c1.206,0,2.539-0.685,3.385-1.458l1.44,1.747c-1.296,1.296-2.827,2.125-4.843,2.125c-4.808,0-6.266-3.781-6.266-6.482   c0-2.629,1.458-6.464,6.266-6.464c2.161,0,3.655,0.936,4.916,2.358L10.587,6.495z" /><path
       id="path8"
       d="M30.334,8.98c0,2.701-1.458,6.518-6.23,6.518c-4.808,0-6.266-3.817-6.266-6.518c0-2.629,1.458-6.5,6.266-6.5   C28.875,2.48,30.334,6.351,30.334,8.98z M27.741,8.98c0-1.026-0.468-4.123-3.637-4.123c-3.223,0-3.673,3.097-3.673,4.123   s0.45,4.159,3.673,4.159C27.273,13.139,27.741,10.006,27.741,8.98z" /><path
       id="path10"
       d="M40.718,2.534h0.18L46.786,15.3h-2.827l-1.242-2.971h-3.817L37.675,15.3H34.83L40.718,2.534z M39.782,10.222h2.053   l-1.026-2.467L39.782,10.222z" /><path
       id="path12"
       d="M55.279,12.959h4.717V15.3h-7.274V2.696h2.557V12.959z" /><path
       id="path14"
       d="M83.199,8.98c0.846,0.432,1.548,1.386,1.548,2.575c0,1.674-1.044,3.745-4.501,3.745h-4.771V2.696h4.771   c3.457,0,4.501,2.089,4.501,3.763C84.747,7.396,84.099,8.548,83.199,8.98z M82.154,6.459c0-0.342-0.216-1.44-1.729-1.44h-2.431   v2.917h2.485C81.938,7.899,82.154,6.874,82.154,6.459z M82.154,11.555c0-0.468-0.216-1.314-1.674-1.351h-2.485v2.755h2.431   C81.938,12.959,82.154,11.897,82.154,11.555z" /><path
       id="path16"
       d="M93.781,12.959h4.717V15.3h-7.274V2.696h2.557V12.959z" /><path
       id="path18"
       d="M109.603,2.534h0.18l5.888,12.766h-2.827l-1.243-2.971h-3.817l-1.224,2.971h-2.845L109.603,2.534z M108.667,10.222h2.053   l-1.026-2.467L108.667,10.222z" /><path
       id="path20"
       d="M129.675,6.495c-0.685-0.846-2.071-1.603-3.241-1.603c-3.223,0-3.673,3.061-3.673,4.087s0.468,4.069,3.691,4.069   c1.207,0,2.539-0.685,3.385-1.458l1.44,1.747c-1.296,1.296-2.827,2.125-4.843,2.125c-4.808,0-6.266-3.781-6.266-6.482   c0-2.629,1.458-6.464,6.266-6.464c2.161,0,3.655,0.936,4.916,2.358L129.675,6.495z" /><path
       id="path22"
       d="M137.826,15.3V2.696h2.557v5.042l4.447-5.042h2.791l0.054,0.145L142.399,8.8l5.689,6.374l-0.036,0.126h-2.881l-4.789-5.312   V15.3H137.826z" /><path
       id="path24"
       d="M32.992,33.203h-2.029v-0.899h5.107v0.899h-2.049V39.3h-1.03V33.203z" /><path
       id="path26"
       d="M40.971,37.451h-2.508l-0.77,1.859h-1.12l3.108-7.066h0.07l3.118,7.066H41.75L40.971,37.451z M38.832,36.562h1.769   l-0.879-2.129L38.832,36.562z" /><path
       id="path28"
       d="M45.402,33.203h-2.029v-0.899h5.107v0.899h-2.049V39.3h-1.03V33.203z" /><path
       id="path30"
       d="M52.162,33.203h-2.029v-0.899h5.107v0.899h-2.049V39.3h-1.03V33.203z" /><path
       id="path32"
       d="M63.459,35.792c0,1.5-0.79,3.598-3.458,3.598s-3.458-2.099-3.458-3.598c0-1.459,0.79-3.588,3.458-3.588   S63.459,34.333,63.459,35.792z M62.41,35.792c0-0.669-0.3-2.678-2.409-2.678s-2.418,2.009-2.418,2.678   c0,0.67,0.31,2.689,2.418,2.689S62.41,36.461,62.41,35.792z" /><path
       id="path34"
       d="M72.329,35.792c0,1.5-0.79,3.598-3.458,3.598s-3.458-2.099-3.458-3.598c0-1.459,0.79-3.588,3.458-3.588   S72.329,34.333,72.329,35.792z M71.28,35.792c0-0.669-0.3-2.678-2.409-2.678s-2.418,2.009-2.418,2.678   c0,0.67,0.31,2.689,2.418,2.689S71.28,36.461,71.28,35.792z" /><path
       id="path36"
       d="M83.05,37.481c0,1.069-1.059,1.899-2.479,1.899c-1.04,0-1.759-0.21-2.539-0.62l0.39-0.81c0.62,0.3,1.31,0.52,2.069,0.52   c0.78,0,1.489-0.39,1.489-1c0-1.899-3.888-0.839-3.888-3.348c0-1.209,0.91-1.929,2.179-1.929c0.41,0,1.359,0.07,2.399,0.56   l-0.38,0.85c-0.47-0.19-1.33-0.45-1.789-0.45c-0.74,0-1.329,0.15-1.379,0.889C79.122,35.652,83.05,34.732,83.05,37.481z" /><path
       id="path38"
       d="M89.71,36.641v-4.337h1.04v4.337c0,1.16-0.71,2.729-2.729,2.729c-2.019,0-2.719-1.569-2.719-2.729v-4.337h1.02v4.337   c0,0.49,0.34,1.839,1.699,1.839C89.38,38.48,89.71,37.131,89.71,36.641z" /><path
       id="path40"
       d="M94.432,39.3h-1.029v-6.996h2.608c1.869,0,2.429,1.299,2.429,2.189c0,1.329-1.179,2.208-2.289,2.208h-1.719V39.3z    M97.41,34.493c0-0.45-0.24-1.299-1.349-1.299h-1.629v2.598h1.669C97.17,35.772,97.41,34.902,97.41,34.493z" /><path
       id="path42"
       d="M101.822,39.3h-1.029v-6.996h2.608c1.869,0,2.429,1.299,2.429,2.189c0,1.329-1.179,2.208-2.289,2.208h-1.719V39.3z    M104.8,34.493c0-0.45-0.24-1.299-1.349-1.299h-1.629v2.598h1.669C104.561,35.772,104.8,34.902,104.8,34.493z" /><path
       id="path44"
       d="M109.111,38.4h2.668V39.3h-3.698v-6.996h1.029V38.4z" /><path
       id="path46"
       d="M115.621,39.3h-1.029v-3.148l-2.359-3.848h1.149l1.719,2.838l1.729-2.838h1.159l-2.369,3.828V39.3z" /></g><line
     id="line50"
     y2="23.786"
     x2="147.958"
     y1="23.786"
     x1="1.083"
     class="st0" /></svg>